<svg width="124" height="34" viewBox="0 0 124 34" fill="none" xmlns="http://www.w3.org/2000/svg">
<path d="M14.9958 2C12.029 2.00084 9.1292 2.88138 6.66293 4.5303C4.19666 6.17921 2.27474 8.52242 1.1402 11.2636C0.00565553 14.0048 -0.290545 17.0209 0.289051 19.9305C0.868647 22.84 2.29801 25.5123 4.39638 27.6095C6.49475 29.7067 9.16789 31.1346 12.0778 31.7125C14.9876 32.2905 18.0035 31.9926 20.7441 30.8565C23.4847 29.7204 25.8268 27.7972 27.4743 25.33C29.1219 22.8628 30.0008 19.9625 29.9999 16.9957C29.9994 15.0259 29.6108 13.0755 28.8565 11.2558C28.1022 9.43616 26.9968 7.78289 25.6036 6.3904C24.2103 4.99792 22.5564 3.8935 20.7363 3.14019C18.9162 2.38688 16.9656 1.99945 14.9958 2ZM12.8849 23.3791L11.7661 26.6552C9.73746 25.9614 7.97649 24.6508 6.72965 22.9066C5.4828 21.1625 4.81247 19.0722 4.81247 16.9282C4.81247 14.7842 5.4828 12.6939 6.72965 10.9498C7.97649 9.20563 9.73746 7.89497 11.7661 7.20123L12.868 10.4815C11.5258 10.9437 10.3614 11.8133 9.53708 12.9689C8.71279 14.1246 8.26974 15.5087 8.26974 16.9282C8.26974 18.3477 8.71279 19.7318 9.53708 20.8875C10.3614 22.0431 11.5258 22.9127 12.868 23.3748L12.8849 23.3791ZM18.027 26.7185L16.9926 23.4171C18.3587 22.9763 19.5507 22.1156 20.399 20.9577C21.2473 19.7998 21.7085 18.4037 21.7169 16.9684C21.7253 15.533 21.2805 14.1316 20.4459 12.9638C19.6113 11.796 18.4294 10.9215 17.0686 10.4647L18.1536 7.18012C20.2125 7.86339 22.0023 9.18068 23.2667 10.9433C24.5311 12.706 25.2053 14.8236 25.1926 16.9928C25.18 19.162 24.4811 21.2716 23.1963 23.0194C21.9114 24.7672 20.1063 26.0635 18.0396 26.7227" fill="#3AB6EC"/>
<path fill-rule="evenodd" clip-rule="evenodd" d="M118.826 2.11251C119.697 2.11251 120.043 1.57664 120.049 0.973022H121.723C121.723 2.41432 120.605 3.3875 118.826 3.3875C117.059 3.3875 115.941 2.41432 115.947 0.973022H117.609C117.609 1.56432 117.943 2.11251 118.826 2.11251ZM64.5742 13.7387H67.2513L63.0458 8.83728L67.1849 4.2355H64.5471L61.3877 7.92903H60.4592V4.24458H58.4093V13.7387H60.4592V9.96351H61.3998L64.5742 13.7387ZM73.2836 5.94906C71.5743 5.94906 70.4378 7.28721 70.4378 8.97654C70.4378 10.6658 71.5743 12.004 73.2836 12.004C74.9929 12.004 76.1174 10.6931 76.1174 8.97654C76.1174 7.25996 75.0592 5.94906 73.2836 5.94906ZM73.6363 4.00843C76.2983 4.00843 78.2578 6.10648 78.2578 8.99168C78.2578 11.8768 76.3133 13.984 73.6363 13.984C73.0677 14.0089 72.5005 13.9107 71.973 13.696C71.4456 13.4813 70.9703 13.1551 70.5795 12.7397V17.6866H68.5174V4.24458H70.5282V5.38594C70.904 4.92945 71.3805 4.56725 71.9201 4.32812C72.4596 4.089 73.0473 3.97954 73.6363 4.00843ZM100.548 4.24458H92.083V6.14584H95.2816V13.7387H97.3436V6.14584H100.542L100.548 4.24458ZM56.9894 4.24458H48.5272V6.14584H51.7258V13.7387H53.7968V6.14584H56.9954L56.9894 4.24458ZM46.019 8.99168C46.019 7.2206 44.7649 5.9097 43.0676 5.9097C41.3704 5.9097 40.1163 7.18124 40.1163 8.99168C40.1163 10.8021 41.3433 12.0857 43.0676 12.0857C44.792 12.0857 46.019 10.7869 46.019 8.99168ZM38.003 8.99168C38.003 6.14584 40.1977 4.00843 43.0707 4.00843C45.9436 4.00843 48.1383 6.14584 48.1383 8.99168C48.1383 11.8375 45.9406 13.984 43.0676 13.984C40.1947 13.984 38 11.8375 38 8.99168H38.003ZM90.6752 13.7387H88.6252V4.24458H90.6752V13.7387ZM85.4267 10.4993C85.4367 10.3108 85.4078 10.1222 85.3417 9.94541C85.2757 9.76862 85.1739 9.60748 85.0428 9.47212C84.9117 9.33676 84.7541 9.23012 84.5799 9.1589C84.4058 9.08768 84.2188 9.05342 84.0309 9.05829H81.9538V11.9828H84.0309C84.2211 11.9835 84.4094 11.9451 84.5843 11.87C84.7592 11.7948 84.9169 11.6845 85.0476 11.5458C85.1784 11.4071 85.2795 11.2429 85.3447 11.0635C85.4099 10.884 85.4378 10.6931 85.4267 10.5024V10.4993ZM87.4646 10.5024C87.4646 12.4036 86.0929 13.7418 84.0942 13.7418H79.9309V4.24458H81.9689V7.32354H84.2811C86.2406 7.32354 87.4676 8.59508 87.4676 10.5114L87.4646 10.5024ZM93.3516 24.2243C93.3516 25.9136 92.2035 27.2518 90.4768 27.2518C88.6832 27.2518 87.6143 25.9409 87.6143 24.2243C87.6143 22.5077 88.7501 21.1968 90.4768 21.1968C92.2035 21.1968 93.3516 22.5349 93.3516 24.2243ZM85.4521 24.2091C85.4521 27.0943 87.4315 29.1924 90.1205 29.1924C90.7156 29.2213 91.3092 29.1118 91.8542 28.8727C92.3992 28.6336 92.8806 28.2714 93.2602 27.8149V28.9287H95.2914V19.5048H93.2084V20.4611C92.8136 20.0456 92.3335 19.7195 91.8007 19.5048C91.2679 19.2901 90.6949 19.1919 90.1205 19.2168C87.4163 19.2168 85.4521 21.3239 85.4521 24.2091ZM69.2443 21.2892C67.535 21.2892 66.3985 22.6273 66.3985 24.3167C66.3985 26.006 67.535 27.3442 69.2443 27.3442C70.9536 27.3442 72.0781 26.0333 72.0781 24.3167C72.0781 22.6001 71.02 21.2892 69.2443 21.2892ZM69.597 19.3486C72.259 19.3486 74.2185 21.4466 74.2185 24.3318C74.2185 27.217 72.2741 29.3241 69.597 29.3241C69.0285 29.3491 68.4612 29.2508 67.9337 29.0361C67.4063 28.8214 66.931 28.4953 66.5402 28.0798V33.0268H64.4781V19.5847H66.4889V20.7261C66.8647 20.2696 67.3413 19.9074 67.8808 19.6683C68.4203 19.4291 69.008 19.3197 69.597 19.3486ZM75.9745 19.4726H78.1306V23.279H81.8064V19.4726H83.9563V28.9333H81.8064V25.1084H78.1306V28.9333H75.9745V19.4726ZM38.4346 28.9334H41.0725L43.7846 25.1145H44.2788V28.9334H46.5152V25.1145H47.0094L49.7091 28.9334H52.347L48.8627 24.049L52.3161 19.4726H49.7338L47.0341 23.2852H46.5152V19.4726H44.2788V23.2852H43.7475L41.0478 19.4726H38.4655L41.9374 24.049L38.4346 28.9334ZM55.7662 32.4811C57.5084 32.4811 58.5154 31.588 59.0528 30.079L62.8645 19.4849L60.4737 19.4726L58.2806 26.6174H58.1817L55.9948 19.4726H53.6225L57.0636 29.1305L56.872 29.6417C56.4581 30.7196 55.8033 30.7935 54.8272 30.5102L54.3083 32.2471C54.611 32.3703 55.1546 32.4811 55.7662 32.4811ZM96.75 28.9334H97.4419C99.4806 28.9334 100.401 27.5044 100.549 24.3508L100.698 21.3019H103.422V28.9334H105.584V19.4726H98.6651L98.4983 23.6609C98.3933 26.3156 98.0473 27.0979 97.065 27.0979H96.7376L96.75 28.9334ZM110.734 13.7429H112.784V4.24871H110.734V13.7429ZM107.45 9.94955C107.516 10.1263 107.545 10.3149 107.535 10.5035V10.5065C107.546 10.6972 107.518 10.8881 107.453 11.0676C107.388 11.2471 107.287 11.4112 107.156 11.5499C107.025 11.6886 106.868 11.799 106.693 11.8741C106.518 11.9493 106.33 11.9877 106.139 11.9869H104.062V9.06242H106.139C106.327 9.05755 106.514 9.09181 106.688 9.16303C106.863 9.23425 107.02 9.3409 107.151 9.47626C107.282 9.61161 107.384 9.77276 107.45 9.94955ZM106.203 13.7459C108.201 13.7459 109.573 12.4078 109.573 10.5065L109.576 10.5156C109.576 8.59921 108.349 7.32767 106.39 7.32767H104.077V4.24871H102.039V13.7459H106.203ZM123 4.25174V13.7459H120.974V7.63344L116.027 13.7459H114.408V4.25174H116.431V10.3581L121.393 4.24871L123 4.25174Z" fill="black"/>
</svg>
